PathFileType	4	(X/Y/Z)	C:/Users/beibeiliu/ov580/test_trc/User2\sequence.35_training_dense_right.trc
DataRate	CameraRate	NumFrames	NumMarkers	Units	OrigDataRate	OrigDataStartFrame	OrigNumFrames
120	120	8	19	mm	120	217	289
Frame#	Time	ThumbCMC			ThumbMCP			ThumbIP			ThumbTip			IndexMCP			IndexPIP			IndexTip			MiddleMCP			MiddlePIP			MiddleTip			RingMCP			RingPIP			RingTip			PinkyMCP			PinkyPIP			PinkyTip			BackHand1			BackHand2			BackHand3	
		X0	Y0	Z0	X1	Y1	Z1	X2	Y2	Z2	X3	Y3	Z3	X4	Y4	Z4	X5	Y5	Z5	X6	Y6	Z6	X7	Y7	Z7	X8	Y8	Z8	X9	Y9	Z9	X10	Y10	Z10	X11	Y11	Z11	X12	Y12	Z12	X13	Y13	Z13	X14	Y14	Z14	X15	Y15	Z15	X16	Y16	Z16	X17	Y17	Z17	X18	Y18	Z18	
216	1.8	97.8338	-57.4834	76.3207	92.117	-54.6362	47.5681	77.8762	-56.0847	14.5544	57.7921	-60.8621	-4.36609	38.3333	-96.3541	22.4406	10.0895	-80.778	15.9472	10.0677	-52.786	40.0634	22.8083	-107.314	34.2794	-7.575	-81.7217	33.1242	7.93776	-54.0412	54.2647	4.37548	-109.754	51.1898	-15.0376	-86.0856	49.902	4.01195	-57.591	67.9888	0.117766	-111.501	76.7466	-15.772	-83.3408	67.6873	0.797342	-59.0282	83.4793	56.478	-117.096	91.851	74.9256	-110.314	119.368	87.2238	-94.6825	86.6523	
217	1.80833	98.2261	-62.2062	78.3495	97.1977	-59.9162	46.9323	83.7269	-62.9674	11.7385	61.8183	-65.4033	-1.83796	39.3227	-97.9467	20.82	12.0099	-78.1995	13.4984	14.8889	-50.7179	38.3405	16.3738	-107.541	34.3866	-7.25144	-80.8069	32.299	11.6795	-53.0476	57.4874	2.09629	-108.198	52.0632	-15.9182	-81.537	51.0269	4.65545	-55.2861	65.5361	-2.66961	-109.489	78.1025	-18.0658	-81.7327	68.4327	1.74529	-57.9007	76.3566	52.0331	-115.697	97.1712	71.5394	-111.503	120.43	84.9493	-98.72	85.7732	
218	1.81667	99.0921	-66.9022	79.4362	97.3126	-66.5031	46.452	85.7119	-69.624	11.6838	64.5164	-72.5121	-4.76555	38.9159	-98.8489	21.7554	14.0043	-77.1235	13.7364	18.0589	-50.5282	40.025	18.462	-106.882	33.2951	-6.42739	-77.4263	31.8032	14.1524	-51.1573	56.877	0.606132	-105.857	51.8697	-16.3746	-81.2205	49.3019	5.42499	-54.8067	65.4756	-1.32619	-107.563	76.0355	-20.1576	-80.6259	67.8399	6.61467	-56.9217	75.6241	52.4868	-117.847	98.3364	72.7772	-110.869	121.707	82.6689	-103.218	87.6229	
219	1.825	98.7771	-69.0841	80.9091	101.721	-69.8359	46.1506	87.1602	-74.9399	12.7506	64.2047	-76.4579	-2.54484	37.1458	-100.197	25.3393	13.321	-76.8629	16.6362	20.0027	-51.2585	38.084	15.8295	-107.114	33.3097	-4.44128	-77.8848	30.0487	14.7721	-51.0857	53.8431	-1.52913	-105.267	53.3027	-12.7069	-77.3173	47.3307	10.0098	-53.387	64.8516	-4.31412	-105.523	73.0492	-16.8202	-79.1123	63.9605	4.38192	-56.2026	75.5525	48.1163	-117.34	98.3129	69.834	-110.068	121.973	84.3923	-101.555	88.8958	
220	1.83333	102.707	-72.2408	79.5338	100.297	-74.88	46.7311	88.6569	-76.2801	13.2849	60.9195	-80.6092	-0.11923	37.5827	-98.7456	19.9086	15.8788	-73.0128	14.3889	26.411	-48.4072	37.5601	14.1764	-106.624	33.7981	-1.46632	-72.3629	28.6471	16.8439	-52.3421	56.3937	2.79924	-105.14	53.4235	-12.6136	-74.553	48.4095	12.5893	-53.6432	65.0565	-3.90326	-102.588	73.2817	-16.998	-71.2607	65.4169	7.35873	-54.2116	73.7678	45.3375	-117.988	98.7549	69.5025	-108.775	123.924	80.1943	-105.134	84.9401	
221	1.84167	101.185	-74.3744	79.106	104.379	-75.4195	47.138	89.0628	-78.4882	17.0724	59.9613	-82.504	2.78413	35.3464	-99.5091	21.9483	16.0018	-76.3679	15.2968	27.9826	-48.5351	36.8175	15.9485	-106.092	35.6775	1.09422	-70.824	27.4909	20.3042	-51.6441	54.8416	1.54838	-102.971	54.5582	-10.9337	-70.8094	48.7045	14.8033	-52.9299	63.7936	-7.83229	-101.98	77.1025	-14.6173	-72.669	63.9274	6.22251	-52.5676	78.3685	47.2112	-118.527	99.5167	69.2038	-109.319	123.525	81.8596	-106.911	88.5632	
222	1.85	99.8466	-76.3755	79.3285	103.262	-78.4426	50.9692	87.0697	-83.8643	14.8191	61.1574	-82.9027	3.83017	35.4641	-97.9177	21.7684	15.7359	-72.8115	17.3259	28.531	-49.6398	37.813	17.2718	-105.036	34.8578	0.870986	-69.8038	27.8333	20.9399	-49.8019	52.8521	-0.854076	-99.851	50.528	-10.2265	-70.6813	47.9556	16.9604	-52.4678	67.7853	-10.3756	-98.5293	73.4463	-13.0659	-66.9784	64.331	10.1844	-52.5244	74.7019	43.1241	-119.035	100.123	64.4702	-111.366	121.997	80.2433	-106.666	85.4033	
223	1.85833	96.9848	-77.2971	81.8796	100.125	-82.8602	47.9929	85.6884	-83.487	20.7925	53.668	-86.4423	6.27134	36.6855	-97.8428	22.5185	19.0411	-71.2813	13.3036	32.0244	-50.0113	42.1598	14.3266	-101.872	32.4888	0.0660133	-67.3368	31.0672	21.5852	-49.9748	54.8778	-4.31022	-97.6168	50.9967	-8.01827	-66.804	46.9311	17.9368	-51.0076	68.8304	-6.14029	-98.3879	76.5179	-11.6555	-64.6859	63.7898	13.3075	-51.8976	81.2041	43.9263	-118.519	98.2562	63.9612	-113.575	122.738	80.6946	-108.571	89.3776	
